#!OML:ASF F:\VICON\USERDATA\INSTALL\rory3\rory3.ASF
:FULLY-SPECIFIED
:DEGREES
1108
root 0.786295 16.4931 -0.527399 32.7721 -22.8039 1.95052
lowerback -19.9799 -3.92229 1.82472
upperback -17.5177 -5.8252 3.06931
thorax -8.03419 -3.19705 1.62509
lowerneck -8.73977 -1.59066 -2.99023
upperneck 14.92 -3.13031 8.28057
head 6.13046 -1.09539 2.87521
rclavicle 1.25234e-014 -1.74931e-014
rhumerus -31.8857 -25.7834 -0.522215
rradius 30.5348
rwrist -9.40381
rhand -13.7277 17.0652
rfingers 7.12502
rthumb 12.3916 -12.5475
lclavicle 1.25234e-014 -1.74931e-014
lhumerus 33.7011 -1.01856 37.5909
lradius 58.4728
lwrist -15.978
lhand -23.2058 9.43913
lfingers 7.12502
lthumb 3.24438 39.3942
rfemur -61.2577 14.4092 17.5326
rtibia 40.6008
rfoot -57.1041 -39.3346
rtoes 40.4694
lfemur -11.7936 -3.54225 -24.2574
ltibia 27.7824
lfoot 2.79935 44.2906
ltoes 22.4681
1109
root 0.798782 16.4914 -0.516615 32.4689 -22.7588 2.05491
lowerback -20.0501 -3.87765 1.89866
upperback -17.3009 -5.77276 2.99309
thorax -7.75388 -3.17809 1.48378
lowerneck -8.23449 -1.72399 -2.9589
upperneck 14.7033 -3.27324 8.06732
head 5.97885 -1.19479 2.79044
rclavicle -9.53172e-014 -2.14687e-014
rhumerus -32.5565 -25.0094 -1.56393
rradius 30.8684
rwrist -9.52672
rhand -15.6094 18.1321
rfingers 7.12502
rthumb 10.5769 -11.5818
lclavicle -9.53172e-014 -2.14687e-014
lhumerus 31.8169 -1.75847 38.5167
lradius 59.3385
lwrist -16.1664
lhand -23.2313 9.83301
lfingers 7.12502
lthumb 3.21976 39.7884
rfemur -60.9809 14.3387 17.4547
rtibia 40.7099
rfoot -57.342 -39.0601
rtoes 41.0529
lfemur -11.4447 -3.60621 -24.3974
ltibia 27.6685
lfoot 4.15827 44.3261
ltoes 21.3128
1110
root 0.808463 16.4911 -0.504247 32.0868 -22.7591 2.1322
lowerback -19.8277 -4.22106 2.00008
upperback -17.2061 -6.2201 3.47069
thorax -7.704 -3.38514 1.89406
lowerneck -8.26428 -1.48516 -3.74956
upperneck 15.0649 -2.85955 8.09191
head 6.08139 -1.02953 2.96679
rclavicle -1.5863e-013 -2.8625e-014
rhumerus -31.523 -24.6257 -3.48839
rradius 30.9255
rwrist -9.33672
rhand -17.2944 19.269
rfingers 7.12502
rthumb 8.95123 -10.5211
lclavicle -1.5863e-013 -2.8625e-014
lhumerus 28.6147 -1.79203 39.2067
lradius 60.3466
lwrist -16.2684
lhand -23.1639 10.0157
lfingers 7.12502
lthumb 3.28481 39.9701
rfemur -60.5993 14.3317 17.4061
rtibia 40.8259
rfoot -57.4431 -38.8741
rtoes 41.5809
lfemur -10.9769 -3.74469 -24.5449
ltibia 27.5402
lfoot 5.97344 44.2338
ltoes 18.7981
1111
root 0.815989 16.4904 -0.503043 31.8049 -22.7829 2.30114
lowerback -19.6163 -4.39239 1.90107
upperback -17.1639 -6.42045 3.67166
thorax -7.72172 -3.46323 2.15222
lowerneck -8.0524 -1.51044 -4.47462
upperneck 15.0848 -2.84975 8.4179
head 6.0622 -1.04675 3.19502
rclavicle -1.13307e-014 -3.57812e-014
rhumerus -31.3882 -23.7892 -4.97064
rradius 31.0317
rwrist -9.11754
rhand -18.7059 19.9909
rfingers 7.12502
rthumb 7.58901 -9.85297
lclavicle -1.13307e-014 -3.57812e-014
lhumerus 26.0251 -2.27075 39.9861
lradius 61.2135
lwrist -16.2941
lhand -23.1203 9.71199
lfingers 7.12502
lthumb 3.32688 39.6658
rfemur -60.4288 14.302 17.2455
rtibia 40.8978
rfoot -57.296 -39.1289
rtoes 41.1351
lfemur -10.7263 -3.8323 -24.7265
ltibia 27.4598
lfoot 5.7684 44.3717
ltoes 18.8308
1112
root 0.820735 16.4913 -0.506247 31.854 -22.8269 2.39585
lowerback -19.7928 -4.63732 1.95246
upperback -17.2996 -6.75171 4.04675
thorax -7.74753 -3.62031 2.48194
lowerneck -7.59463 -1.38763 -5.18297
upperneck 15.4512 -2.61217 8.34188
head 6.08655 -0.985318 3.31373
rclavicle -6.55989e-014 -5.40694e-014
rhumerus -30.8191 -22.182 -6.7757
rradius 31.1244
rwrist -9.38046
rhand -19.9865 20.2092
rfingers 7.12502
rthumb 6.35282 -9.67551
lclavicle -6.55989e-014 -5.40694e-014
lhumerus 22.8362 -2.78305 40.702
lradius 61.8493
lwrist -16.5686
lhand -23.2851 9.54419
lfingers 7.12502
lthumb 3.16776 39.5004
rfemur -60.5871 14.3232 17.064
rtibia 40.8877
rfoot -57.1103 -39.6088
rtoes 40.4306
lfemur -10.8979 -3.82635 -24.8245
ltibia 27.5136
lfoot 5.92661 44.4893
ltoes 18.5709
1113
root 0.823668 16.4907 -0.514607 32.0657 -22.9237 2.37044
lowerback -20.002 -4.09707 1.82496
upperback -17.0151 -6.03629 3.35879
thorax -7.38293 -3.27831 1.8593
lowerneck -8.1331 -2.14833 -4.01358
upperneck 15.512 -3.77569 8.10133
head 6.26263 -1.4868 2.94503
rclavicle 3.04141e-014 1.59028e-014
rhumerus -33.5017 -21.7633 -7.05973
rradius 31.3222
rwrist -9.6411
rhand -20.7399 20.5111
rfingers 7.12502
rthumb 5.62549 -9.39421
lclavicle 3.04141e-014 1.59028e-014
lhumerus 22.5671 -4.57336 41.628
lradius 62.0594
lwrist -17.2415
lhand -23.4266 9.80301
lfingers 7.12502
lthumb 3.03112 39.7612
rfemur -60.8711 14.4552 16.9267
rtibia 40.8196
rfoot -57.0555 -40.0628
rtoes 40.0951
lfemur -11.2508 -3.65327 -24.8291
ltibia 27.6829
lfoot 4.80805 44.7988
ltoes 21.0357
1114
root 0.826508 16.489 -0.525527 32.3825 -23.2276 2.26928
lowerback -20.1969 -3.80663 1.7704
upperback -16.8711 -5.65679 3.10767
thorax -7.13986 -3.09324 1.64156
lowerneck -8.44854 -2.53107 -3.55213
upperneck 15.5635 -4.35913 8.04244
head 6.36307 -1.73878 2.79791
rclavicle 3.28989e-014 3.10104e-014
rhumerus -34.9216 -21.8707 -7.74508
rradius 31.191
rwrist -9.05065
rhand -20.9066 21.0845
rfingers 7.12502
rthumb 5.46449 -8.82504
lclavicle 3.28989e-014 3.10104e-014
lhumerus 21.2246 -5.76824 42.4459
lradius 62.2835
lwrist -17.8417
lhand -23.1167 10.4214
lfingers 7.12502
lthumb 3.33039 40.3751
rfemur -61.2661 14.7779 16.6997
rtibia 40.787
rfoot -57.1832 -39.8414
rtoes 40.4631
lfemur -11.6556 -3.37611 -24.8831
ltibia 27.8066
lfoot 1.02333 45.1763
ltoes 26.1205
1115
root 0.830689 16.4916 -0.52998 32.4927 -23.2262 2.0623
lowerback -20.1007 -3.59931 1.97514
upperback -16.9386 -5.40849 3.09522
thorax -7.29314 -2.98645 1.56289
lowerneck -8.16187 -2.76454 -3.81649
upperneck 15.7256 -4.67279 8.10354
head 6.39063 -1.90652 2.83913
rclavicle -4.91992e-014 -1.98785e-014
rhumerus -36.0245 -21.5276 -8.30093
rradius 31.1426
rwrist -8.40201
rhand -20.756 21.3268
rfingers 7.12502
rthumb 5.60997 -8.57898
lclavicle -4.91992e-014 -1.98785e-014
lhumerus 19.1669 -7.10666 43.6398
lradius 62.3601
lwrist -18.4515
lhand -22.1787 10.9037
lfingers 7.12502
lthumb 4.23617 40.8413
rfemur -61.2794 14.9408 16.8049
rtibia 40.7167
rfoot -57.2947 -39.8557
rtoes 40.1743
lfemur -11.7756 -3.44482 -24.6994
ltibia 27.9432
lfoot -3.12204 45.1583
ltoes 30.1872
1116
root 0.843486 16.4976 -0.51536 31.8308 -22.4506 2.08336
lowerback -19.7142 -3.84244 2.51563
upperback -16.4688 -5.77616 3.03411
thorax -6.99232 -3.21476 1.14471
lowerneck -9.05726 -2.77636 -3.26939
upperneck 16.1645 -4.73857 7.81361
head 6.67413 -1.8985 2.64149
rclavicle 2.39536e-014 -2.94201e-014
rhumerus -36.4199 -21.4684 -9.91557
rradius 31.0186
rwrist -7.99711
rhand -20.4297 21.1155
rfingers 7.12502
rthumb 5.92495 -8.78169
lclavicle 2.39536e-014 -2.94201e-014
lhumerus 17.2179 -7.73167 44.1876
lradius 62.509
lwrist -18.6652
lhand -20.8015 11.1424
lfingers 7.12502
lthumb 5.56604 41.0493
rfemur -60.3543 14.3771 17.3426
rtibia 40.7795
rfoot -57.957 -39.2666
rtoes 40.6677
lfemur -11.0191 -3.98345 -24.3727
ltibia 27.9253
lfoot -4.38181 44.9634
ltoes 31.4743
1117
root 0.851149 16.4897 -0.525791 31.9037 -22.6905 2.06308
lowerback -19.6466 -3.92783 2.51001
upperback -16.3827 -5.88346 3.25509
thorax -6.89925 -3.25546 1.36784
lowerneck -9.58825 -2.71915 -3.52433
upperneck 16.4906 -4.63498 7.82798
head 6.87183 -1.84408 2.69492
rclavicle 1.5207e-014 -2.38542e-015
rhumerus -36.3866 -20.3623 -11.7056
rradius 30.9965
rwrist -8.66914
rhand -19.7701 21.1673
rfingers 7.12502
rthumb 6.56176 -8.71107
lclavicle 1.5207e-014 -2.38542e-015
lhumerus 14.7348 -8.2387 45.0961
lradius 62.6892
lwrist -18.5785
lhand -18.8486 11.4405
lfingers 7.12502
lthumb 7.45126 41.2893
rfemur -60.6645 14.6128 17.1383
rtibia 40.7652
rfoot -57.1184 -40.8806
rtoes 39.5495
lfemur -11.0899 -3.91739 -24.4967
ltibia 27.9011
lfoot -6.24229 44.7865
ltoes 32.925
1118
root 0.858672 16.4952 -0.535323 31.7247 -22.9047 2.23496
lowerback -19.2313 -4.07141 2.27059
upperback -16.4052 -6.0232 3.47626
thorax -7.08391 -3.29078 1.75307
lowerneck -9.55974 -2.69513 -4.14335
upperneck 16.5325 -4.55018 8.09182
head 6.8935 -1.81997 2.89306
rclavicle 1.26725e-013 2.14687e-014
rhumerus -36.4273 -19.3356 -13.3728
rradius 30.9766
rwrist -9.28608
rhand -19.5673 20.9302
rfingers 7.12502
rthumb 6.75757 -8.94199
lclavicle 1.26725e-013 2.14687e-014
lhumerus 12.1051 -8.63506 46.3007
lradius 63.1166
lwrist -18.7864
lhand -15.379 12.4345
lfingers 7.12502
lthumb 10.7992 42.1369
rfemur -60.5274 14.7186 16.8313
rtibia 40.8398
rfoot -58.1369 -39.1555
rtoes 41.2555
lfemur -10.9666 -3.93273 -24.7892
ltibia 27.8322
lfoot -10.7051 44.3121
ltoes 36.7358
